# xmcd
#
# Track frame offsets:
#	183
#	13548
#	28253
#	41290
#	51390
#	65663
#	77653
#	91003
#	107738
#	122030
#	161338
#	172923
#	184843
#	198125
#	212588
#	226585
#	241423
#	254843
#	268505
#	281683
#
# Disc length: 3940 seconds
#
# Revision: 4
# Processed by: cddbd v1.5.1PL2 Copyright (c) Steve Scherf et al.
# Submitted via: EasyCDDAExtractor 6.0.0.1
#
DISCID=0a0f6214
DTITLE=Various Artist - Big Band Jazz (Volume II)
DYEAR=1983
DGENRE=Big Band
TTITLE0=Chick Webb and his Orchestra - That Naughty Waltz
TTITLE1=Chick Webb and his Orchestra - Harlem Congo
TTITLE2=Jimmie Lunceford and his Orchestra - Mood Indigo
TTITLE3=Jimmie Lunceford and his Orchestra - Stratosphere
TTITLE4=Jimmie Lunceford and his Orchestra - Stomp It Off
TTITLE5=Jimmie Lunceford and his Orchestra - Organ Grinder's Swing
TTITLE6=Jimmie Lunceford and his Orchestra - Uptown Blues
TTITLE7=Benny Goodman and his Orchestra - Sometimes I'm Happy
TTITLE8=Benny Goodman and his Orchestra - King Porter
TTITLE9=Benny Goodman and his Orchestra - Sing, Sing, Sing
TTITLE10=Benny Goodman and his Orchestra - Ridin' High
TTITLE11=Benny Goodman and his Orchestra - Mission to Moscow
TTITLE12=Andy Kirk and his Twelve Clouds of Joy - Big Jim Blues
TTITLE13=Tommy Dorsey and his Orchestra - Song of India
TTITLE14=Tommy Dorsey and his Orchestra - Well, Git It!
TTITLE15=Tommy Dorsey and his Orchestra - On the Sunny Side of the Street
TTITLE16=Tommy Dorsey and his Orchestra - Opus No. One
TTITLE17=Count Basie and his Orchestra - One O'Clock Jump
TTITLE18=Count Basie and his Orchestra - Sent for You Yesterday
TTITLE19=Count Basie and his Orchestra - Jumpin' at the Woodside
EXTD=
EXTT0=
EXTT1=
EXTT2=
EXTT3=
EXTT4=
EXTT5=
EXTT6=
EXTT7=
EXTT8=
EXTT9=
EXTT10=
EXTT11=
EXTT12=
EXTT13=
EXTT14=
EXTT15=
EXTT16=
EXTT17=
EXTT18=
EXTT19=
PLAYORDER=
